<svg id="Layer_1" data-name="Layer 1" xmlns="http://www.w3.org/2000/svg" viewBox="0 0 206.86 207.7"><defs><style>.cls-1{fill:#fff;}</style></defs><title>mint logo</title><path class="cls-1" d="M383,50.71c4.38-.56,8.74.43,12.88,1.78a62.56,62.56,0,0,1,14.87,7.67c4.11,3.1,8.18,6.6,10.49,11.3,1,2.08,1.3,4.84-.47,6.6-2,2.2-5.37,1.72-8.06,1.72a37.34,37.34,0,0,1-6.6-1.76c-.41-.18-1-.25-1.21-.64a42,42,0,0,0,9.4,1.38,11.25,11.25,0,0,0,4.21-1,2.94,2.94,0,0,0,1.79-3c-.45-2.73-2.29-4.91-4-7a49.78,49.78,0,0,0-10.35-8A60.26,60.26,0,0,0,393.56,54,27.63,27.63,0,0,0,383,52.43c-1.76.16-4.05,1.28-3.8,3.38a5.9,5.9,0,0,0,.79,3.4,28.48,28.48,0,0,0,4.22,6l-.37,0c-2.48-2.46-5.22-5.12-5.93-8.68a4.5,4.5,0,0,1,1.27-4.09A8.31,8.31,0,0,1,383,50.71Z" transform="translate(-251.06 -50.55)"/><path class="cls-1" d="M389.84,57.32c3.75-.39,7.36,1,10.75,2.45A32.66,32.66,0,0,1,410.8,67c1.57,1.81,2.85,4.15,2.55,6.64a3.88,3.88,0,0,1-3.53,3.09,7.51,7.51,0,0,1-4.27-.88,1.44,1.44,0,0,1-.81-.57,14.46,14.46,0,0,0,4.48-1.17c.31-.19.85-.4.71-.86-.54-1.87-2.11-3.21-3.42-4.56A35.17,35.17,0,0,0,395.58,62a20.09,20.09,0,0,0-5.68-1.48c-1-.15-2.51-.21-2.87,1-.27,1.56.69,2.92,1.12,4.36A5.46,5.46,0,0,1,385,60.22C385.62,58.15,387.91,57.44,389.84,57.32Z" transform="translate(-251.06 -50.55)"/><path class="cls-1" d="M331.61,78h.2q0,14.7,0,29.38h-.2Q331.63,92.67,331.61,78Z" transform="translate(-251.06 -50.55)"/><path class="cls-1" d="M388,81.8c2.53,0,5.06,0,7.59,0V82H388Z" transform="translate(-251.06 -50.55)"/><path class="cls-1" d="M405,90.19c.45.13.11,1.11.2,1.58l-.19,0C404.94,91.26,404.94,90.73,405,90.19Z" transform="translate(-251.06 -50.55)"/><path class="cls-1" d="M405,108.36c.1-4-.21-8.09.16-12,.08,4,0,8,0,12Z" transform="translate(-251.06 -50.55)"/><path class="cls-1" d="M300.79,98.06c.24-.1,1.17-.91,1.14-.46-5.51,4.53-10.49,9.93-13.53,16.46a24.26,24.26,0,0,0,3.34-1.12,57.08,57.08,0,0,1,75.19,54.65A57,57,0,0,1,344,213a31.84,31.84,0,0,1-7.18,14c-5.32,6.33-12.72,10.61-20.46,13.32a13.46,13.46,0,0,1-2.62.81c1.65-1.27,3.62-2.22,5.21-3.61,6.07-4.63,11.49-10.41,14.46-17.52a2,2,0,0,0,.11-.9,26,26,0,0,0,.81-16.15,39.22,39.22,0,0,0-7.18-13.79c-6-7.74-13.75-13.88-21.78-19.39-8.82-5.71-17.05-12.78-22.45-21.91-5-8.16-7.12-18.63-3.68-27.79.14-.34.26-.7.37-1,1-1.57,1.75-3.26,2.77-4.8C286.79,107.17,293.59,102,300.79,98.06Zm-12.74,16.82a26.05,26.05,0,0,0-1.46,18.34,34.24,34.24,0,0,0,6.26,11.53,66.51,66.51,0,0,0,8.48,8.3c4.93,4.21,10.76,7.15,15.9,11.08l.4,0a1.7,1.7,0,0,0,.68.7c.77.46,1.36,1.33,2.23,1.54.41.66,1.17,1,1.69,1.52,2.52,1.93,4.74,4.19,7.06,6.33a21.87,21.87,0,0,0,2.41,2.59c4.71,5.4,9,11.42,11.12,18.32l.17.09c-.1.34.11,1.24.55.71a2.85,2.85,0,0,0,0,1.8l.38,0c-.23.13-.43.85,0,.78-.08.35,0,.54.23.59-.31.2-.08.51,0,.77.19.55-.15,1.66.4,1.88a4.58,4.58,0,0,0,0,1v.4a4.69,4.69,0,0,0,.23,1.38,39.59,39.59,0,0,1-.63,7.6l.33-.08a56.52,56.52,0,0,0,22-46.7c-.3-2.64-.36-5.31-.88-7.93a56.27,56.27,0,0,0-9.48-22.86,57.42,57.42,0,0,0-29.34-21.46A56.27,56.27,0,0,0,288.05,114.88Z" transform="translate(-251.06 -50.55)"/><path class="cls-1" d="M343.63,153.17c.78,0,1.57,0,2.36,0l0,.2C345.41,153.11,343.87,153.71,343.63,153.17Z" transform="translate(-251.06 -50.55)"/><path class="cls-1" d="M349.23,160.52h3.16v.19c-1.07,0-2.14,0-3.2,0Z" transform="translate(-251.06 -50.55)"/><path class="cls-1" d="M350,180.27c.5.45,1,.93,1.42,1.43C350.81,181.53,350,181,350,180.27Z" transform="translate(-251.06 -50.55)"/><path class="cls-1" d="M353.79,188.74l.2-.05c-.05.5-.15,1.51-.19,2C353.81,190.05,353.79,189.38,353.79,188.74Z" transform="translate(-251.06 -50.55)"/><path class="cls-1" d="M348,189.7h.2c0,1,0,2,0,3H348Z" transform="translate(-251.06 -50.55)"/><path class="cls-1" d="M352.22,191.34a9.13,9.13,0,0,0,1.18-.86c0,.62-.69,1-1.21,1Z" transform="translate(-251.06 -50.55)"/><path class="cls-1" d="M350.79,196a.87.87,0,0,1,.73-.76A.79.79,0,0,1,350.79,196Z" transform="translate(-251.06 -50.55)"/><path class="cls-1" d="M346.42,202.54c.26-.45.7-1.14,1.26-1.18A3.25,3.25,0,0,1,346.42,202.54Z" transform="translate(-251.06 -50.55)"/><path class="cls-1" d="M345.64,203.07a1,1,0,0,1,0,1.44C345.66,204.15,345.65,203.43,345.64,203.07Z" transform="translate(-251.06 -50.55)"/><path class="cls-1" d="M277.27,216.5c.91.64,1.91,1.14,2.83,1.75-2.4,3.58-5.09,7-7.52,10.54-.57.69-.92,1.63-1.73,2.1,1.78-3.93,3.62-7.87,5.45-11.78C276.56,218.21,277.31,217.47,277.27,216.5Z" transform="translate(-251.06 -50.55)"/><path class="cls-1" d="M265.34,231a8.91,8.91,0,0,1,6.31,1.12c4.52,2.57,5.57,9.53,1.86,13.23,2.35,3.13,5.17,6,7.56,9.15l-.36-.06c-2.81-2.6-5.79-5-8.7-7.49l-.33,0a8.66,8.66,0,0,1-12-2.81,8.81,8.81,0,0,1,1.12-10.64A8.47,8.47,0,0,1,265.34,231Z" transform="translate(-251.06 -50.55)"/><path class="cls-1" d="M282.7,253.94a2.1,2.1,0,0,1,2.36,2.31c.18,2-2.94,2.78-3.9,1.08A2.2,2.2,0,0,1,282.7,253.94Z" transform="translate(-251.06 -50.55)"/><path class="cls-1" d="M390.64,66.11a12.76,12.76,0,0,1,9.4,2.41,5.76,5.76,0,0,1,2.45,5.61,7.93,7.93,0,0,1-1.67,2.93c-2.45,2.34-6,3.1-9.25,3.13a13.14,13.14,0,0,1-7.47-2.51c-2-1.46-3.27-4.26-2.06-6.63C383.54,67.81,387.29,66.41,390.64,66.11Z" transform="translate(-251.06 -50.55)"/><path class="cls-1" d="M423.75,67.81q17.07,0,34.16,0,0,4,0,8c-4,0-8,0-12,0,0,10.92,0,21.84,0,32.76-3.39,0-6.78,0-10.17,0,0-10.92,0-21.84,0-32.76-4,0-8,0-12,0Q423.72,71.8,423.75,67.81Z" transform="translate(-251.06 -50.55)"/><path class="cls-1" d="M324.63,69.81c4.19,0,8.37,0,12.55,0,1.89,4.74,3.28,9.73,5.05,14.55,1.44,4.2,2.74,8.47,4.37,12.58l.17,0c.57-2.71,1.74-5.29,2.51-8,2.17-6.39,4.25-12.81,6.37-19.2,4-.06,8.09,0,12.13,0q0,18.78,0,37.55c-2.8,0-5.59,0-8.38,0q0-14.6,0-29.18l-.16,0c-2.1,6.66-4.47,13.24-6.52,19.9-1.1,3.05-2,6.23-3.15,9.22-2.32,0-4.64,0-7,0-3.38-8.87-6.41-17.91-9.71-26.82a24.35,24.35,0,0,1-.92-2.94c-.32-.09-.44,0-.37.38q0,14.69,0,29.37c-2.32,0-4.65,0-7,0Q324.62,88.58,324.63,69.81Z" transform="translate(-251.06 -50.55)"/><path class="cls-1" d="M388,82h7.78q0,13.19,0,26.36c-2.59,0-5.18,0-7.77,0Q388,95.18,388,82Z" transform="translate(-251.06 -50.55)"/><path class="cls-1" d="M407.61,90.65a9.13,9.13,0,0,1,5.54-.27,4.68,4.68,0,0,1,3.67,2.94,11.66,11.66,0,0,1,.53,3.86c0,3.72,0,7.45,0,11.18-2.26,0-4.52,0-6.78,0,0-3.65,0-7.32,0-11a3.46,3.46,0,0,0-.92-2.66c-.33-.63-1.16-.42-1.67-.15a6.88,6.88,0,0,0-2.83,1.76c-.37,3.94-.06,8-.16,12-2.27,0-4.53,0-6.79,0,0-6,0-12,0-17.93l.22-.22c2.18,0,4.36,0,6.54,0,0,.54,0,1.07,0,1.6V92A27.35,27.35,0,0,0,407.61,90.65Z" transform="translate(-251.06 -50.55)"/><path class="cls-1" d="M308.9,115a18.14,18.14,0,0,1,3.29,1c.14,1.06.43,2.08.64,3.13-1,.68-2,1.36-3,2a38.17,38.17,0,0,0-4.18-1.44c0-1.1-.08-2.21,0-3.31A29.85,29.85,0,0,1,308.9,115Zm-.2,1.19c-.55.17-1.06.43-1.6.61-1,.09-.19,1.5-.44,2.08,1,.35,2,.67,3,1a14.67,14.67,0,0,0,2-1.24,4.6,4.6,0,0,0-.44-1.9A4.59,4.59,0,0,0,308.7,116.23Z" transform="translate(-251.06 -50.55)"/><path class="cls-1" d="M316.88,119.84a43.13,43.13,0,0,1,5.08,1.78c.72,1.52,1.21,3.15,1.83,4.71-1.47,1.06-2.87,2.22-4.38,3.22-1.81-.5-3.44-1.53-5.21-2.15-.4-.17-1-.29-1-.83-.27-1.66-.84-3.3-.95-5C313.74,120.91,315.32,120.37,316.88,119.84Zm0,1.39a30.38,30.38,0,0,0-3.23,1.18,27.2,27.2,0,0,0,.83,3.68c1.54.71,3.12,1.37,4.69,2,1.05-.67,2.05-1.42,3-2.16a24.5,24.5,0,0,0-1.26-3.31A29.17,29.17,0,0,0,316.89,121.23Z" transform="translate(-251.06 -50.55)"/><path class="cls-1" d="M277.53,120.43l.35-.07c-.11.35-.23.71-.37,1.06-3.43,9.15-1.36,19.62,3.68,27.78,5.4,9.13,13.64,16.2,22.45,21.92,8,5.51,15.79,11.64,21.78,19.38a39.08,39.08,0,0,1,7.19,13.79,26,26,0,0,1-.82,16.15,64.12,64.12,0,0,1-11.15,3.67,60.61,60.61,0,0,1-16.94,1.3,57.73,57.73,0,0,1-23.6-7.16c-.92-.61-1.92-1.11-2.83-1.75a45.47,45.47,0,0,1-6-4.41c-.61-.38-1-1.14-1.72-1.29a31.93,31.93,0,0,0-2.72-2.86c-.42-.46-1-.76-1.22-1.39a55.88,55.88,0,0,1-13.42-26.71,56.78,56.78,0,0,1,2.62-31.57,55.52,55.52,0,0,1,13.52-20.47A53.29,53.29,0,0,1,277.53,120.43Z" transform="translate(-251.06 -50.55)"/><path class="cls-1" d="M294.09,121.25c1.59.2,3,1.14,4.54,1.35,0,1.58.06,3.16,0,4.73-2,1-4,2.19-6,3.2-2-.76-3.95-1.7-6-2.42a42.51,42.51,0,0,1,1.46-4.29c.16-.8,1.09-.84,1.7-1.09C291.23,122.18,292.66,121.7,294.09,121.25Zm-.18,1.37c-1.46.66-3.09,1-4.5,1.69a16.52,16.52,0,0,0-1.14,3c1.45.56,2.85,1.29,4.33,1.76,1.65-.79,3.22-1.71,4.8-2.59,0-.72,0-2.16,0-2.88C296.21,123.43,295.1,122.55,293.91,122.62Z" transform="translate(-251.06 -50.55)"/><path class="cls-1" d="M304.91,121.24c1.44-.22,2.74.63,4.13.91a1.11,1.11,0,0,1,.9,1.34c.16,1.08.57,2.13.66,3.21-1.55.8-2.82,2.07-4.37,2.85h-.38c-1.66-.75-3.38-1.37-5-2.2,0-1.51-.08-3,0-4.54C302.21,122.28,303.58,121.82,304.91,121.24Zm.52,1.16c-1.09.54-2.3.82-3.37,1.39a24.69,24.69,0,0,0,0,2.72c1.1.52,2.25.95,3.36,1.45.23.08.5.31.74.12a33.56,33.56,0,0,0,3-2.15c-.23-.83-.39-1.69-.59-2.53C307.58,122.94,306.46,122.78,305.43,122.4Z" transform="translate(-251.06 -50.55)"/><path class="cls-1" d="M327.89,121.67c1.13-.3,2,.65,3,1,.61.28,1.43.43,1.7,1.12.57,1.13,1.27,2.19,1.81,3.33-.84.68-1.68,1.42-2.57,2-1.93-.78-3.81-1.7-5.74-2.46-.48-1.12-.89-2.27-1.37-3.39a2.62,2.62,0,0,1-.29-1.31A29,29,0,0,0,327.89,121.67Zm.19,1c-.74.18-1.51.24-2.26.35a13.47,13.47,0,0,0,1.06,2.9c1.59.67,3.17,1.34,4.73,2,.43-.38,1.24-.59,1.4-1.18-.46-.86-1-1.69-1.42-2.57A13.53,13.53,0,0,0,328.08,122.64Z" transform="translate(-251.06 -50.55)"/><path class="cls-1" d="M325.07,127.63c2,.84,4.08,1.66,6.09,2.57.45,1.55,1.15,3,1.63,4.56.1.37-.3.61-.46.89-1,.36-1.58,1.45-2.33,2.09-2.33-.4-4.6-1.21-6.93-1.65-.72-.47-.71-1.45-1-2.15-.25-1.14-.94-2.18-1-3.35C322.41,129.63,323.67,128.53,325.07,127.63Zm.12,1.15c-1,.73-1.91,1.54-2.95,2.21a27.62,27.62,0,0,0,1.43,4.1c1.9.55,3.83,1,5.75,1.45a10.54,10.54,0,0,0,2.17-1.83,25.24,25.24,0,0,0-.94-2.78,2.1,2.1,0,0,0-1.37-1.44C327.9,130,326.55,129.36,325.19,128.78Z" transform="translate(-251.06 -50.55)"/><path class="cls-1" d="M340.84,128c.68.08,1.17.7,1.77,1,1.55.65,1.68,2.42,2.33,3.76-.37.67-.82,1.31-1.19,2a23.56,23.56,0,0,1-2.69-1.39c-.52-1.13-1.1-2.24-1.65-3.36C339.83,129.25,340.36,128.61,340.84,128Zm.2,1.41c-.19.29-.53.65-.24,1,.62,1,.85,2.51,2.14,2.89.47.35.64-.39.85-.68-.35-.77-.64-1.58-1-2.33C342.15,130,341.68,129.42,341,129.36Z" transform="translate(-251.06 -50.55)"/><path class="cls-1" d="M312.08,128.21a64.87,64.87,0,0,1,6.49,2.39c.59.64.62,1.62,1,2.39.32,1.25,1.18,2.37,1.05,3.71-1.54,1.27-2.61,3-4.18,4.25-2.55-1-5-2.17-7.55-3.25-.28-2.18-.6-4.37-1-6.53C309.3,130.25,310.62,129.11,312.08,128.21Zm.21,1.8c-.91.54-1.75,1.2-2.63,1.78a44.32,44.32,0,0,0,.62,4.71c1.81,1.05,3.84,1.75,5.75,2.63,1.19-.73,1.84-2.14,3-3-.45-1.38-.88-2.77-1.4-4.12a35.92,35.92,0,0,0-3.93-1.67C313.2,130.22,312.75,129.87,312.29,130Z" transform="translate(-251.06 -50.55)"/><path class="cls-1" d="M334.68,128.21c1-.11,1.76.92,2.72,1.17,1.56.51,1.89,2.31,2.6,3.59-.1,1.16-1.25,2-1.82,3-1.31-.62-2.74-1.08-4-1.76a38.09,38.09,0,0,1-1.55-4.23C333.05,129.23,334.08,128.88,334.68,128.21Zm.2,1.21a9.72,9.72,0,0,1-1,.78,30.58,30.58,0,0,0,1,3.11,14.75,14.75,0,0,0,2,1c.32.16.7.41,1.06.21.28-.51.87-.91.87-1.52a17.15,17.15,0,0,0-1.23-2.37A15.4,15.4,0,0,0,334.88,129.42Z" transform="translate(-251.06 -50.55)"/><path class="cls-1" d="M298.51,129c.29-.2.66,0,.95.09l4.44,1.77c.71.27,1.76.55,1.39,1.65.15,1.93.74,3.83.72,5.77-2.25,1.74-4.44,3.59-6.76,5.22-2.4-1.13-4.71-2.46-7.18-3.44-.05-2.44.57-4.84.65-7.28.25-.84,1.3-1,1.93-1.47C295.89,130.5,297.26,129.85,298.51,129Zm.38,1.58c-1.51,1-3.14,1.74-4.6,2.78-.32,1.88-.45,3.8-.61,5.7,1.83.87,3.64,1.81,5.51,2.59,1.77-1.29,3.41-2.74,5.2-4,0-1.7-.5-3.39-.59-5.1C302.21,131.85,300.54,131.21,298.89,130.61Z" transform="translate(-251.06 -50.55)"/><path class="cls-1" d="M341.28,134.8c.88-.12,1.5.9,2.33,1.15,1.22.32,1.21,1.72,1.74,2.65.7,1.36-.62,2.52-1.16,3.69-1.08-.49-3-.2-3.2-1.74-.42-1.13-1-2.21-1.32-3.36C340.15,136.35,340.79,135.62,341.28,134.8Zm.37,1.37a5.49,5.49,0,0,0-.82,1.17c.34,1,.78,1.87,1.14,2.82.11.77,1,.65,1.62.78.46-.3.66-1,1-1.44-.19-.73-.55-1.4-.8-2.09A4.29,4.29,0,0,0,341.65,136.17Z" transform="translate(-251.06 -50.55)"/><path class="cls-1" d="M334.06,135.78a18.59,18.59,0,0,1,3.16,1.36c.45.25,1,.4,1.33.86.45,1.55,1.12,3,1.64,4.54-.71,1-1,2.28-1.83,3.17-1.65,0-3.26-.47-4.91-.61-1-1.94-1.54-4.1-2.37-6.11A37.62,37.62,0,0,1,334.06,135.78Zm.19,1.19a2,2,0,0,0-.53.88,13.08,13.08,0,0,0-1.46,1.32c.59,1.65,1.24,3.28,1.82,4.93a14.86,14.86,0,0,0,3.87.41,22.17,22.17,0,0,1,1.06-2c-.23-1.09-.77-2.09-1.06-3.15a1.54,1.54,0,0,0-1-1.18A19.31,19.31,0,0,0,334.25,137Z" transform="translate(-251.06 -50.55)"/><path class="cls-1" d="M322.07,137.77c2.41.3,4.75,1.11,7.14,1.58.25,0,.38.28.53.45.58,1.55,1.22,3.06,1.82,4.6a4.11,4.11,0,0,1,.46,1.53c-1.17,1.82-2.46,3.57-3.64,5.38-2.76-.31-5.57-.48-8.3-1l-.21-.19c-.43-1.8-1.05-3.54-1.48-5.33a5.7,5.7,0,0,1-.51-2.36C319.05,140.66,320.94,139.53,322.07,137.77Zm.79,1.64c-1.14,1.11-2.25,2.27-3.4,3.37.42,2,1.14,3.92,1.61,5.91l.2.2c2.09.37,4.21.58,6.31.83.9-1.42,1.95-2.73,2.81-4.18-.74-1.55-1.26-3.23-2-4.76C326.54,140.31,324.7,139.87,322.86,139.41Z" transform="translate(-251.06 -50.55)"/><path class="cls-1" d="M307.9,139.61c.46-.25.92.19,1.35.31,2.22,1,4.54,1.83,6.74,2.86.55,2.4,1.3,4.75,1.88,7.14.21.42-.23.74-.34,1.13a17.24,17.24,0,0,0-2.86,2.93c-.49.63-1.34,1-1.53,1.87-.33.21-.65.63-1.09.45-3.16-.88-6.39-1.52-9.55-2.43l-.22-.18c-.29-3.18-.81-6.35-1.21-9.5C303.42,142.76,305.6,141.1,307.9,139.61Zm.39,1.6c-1.79,1.28-3.62,2.51-5.44,3.75,0,2.52.71,5,.83,7.53l.21.19c2.72.49,5.33,1.57,8.08,1.81,1.51-1.44,2.85-3.06,4.26-4.57a45.54,45.54,0,0,0-1.66-6.11C312.46,143,310.4,142,308.29,141.21Z" transform="translate(-251.06 -50.55)"/><path class="cls-1" d="M346.64,140.75a21,21,0,0,1,2.71.45,25.55,25.55,0,0,1,1.79,3,11.49,11.49,0,0,1-.39,3.73,17.22,17.22,0,0,1-3.1-.63c-.5-1.09-1-2.16-1.58-3.23A18,18,0,0,1,346.64,140.75Zm.81,1.21c-.13.53-.27,1-.41,1.58a23,23,0,0,0,1.39,2.76,3.27,3.27,0,0,0,1.54.44l.16-1.33c.29-1.09-.81-1.9-1.14-2.86C348.77,142,348,142,347.45,142Z" transform="translate(-251.06 -50.55)"/><path class="cls-1" d="M341.84,143.36c1.14,0,2.17.71,3.31.83.66,1.37,1.16,2.82,1.78,4.21a1.19,1.19,0,0,1,0,.81c-.33,1.28-.38,2.63-.74,3.9H346c-.79,0-1.58,0-2.36,0l-1.21.16c-.63-1.16-1-2.45-1.52-3.66A10.42,10.42,0,0,1,340,147C340.62,145.75,341.14,144.5,341.84,143.36Zm.6,1.19a25.81,25.81,0,0,0-1.41,2.58c.69,1.65,1.25,3.37,2,5,.77,0,1.56,0,2.34,0,0-1.32.69-2.58.35-3.92-.36-.79-.68-1.59-1-2.4C344.45,144.83,343.28,144.69,342.44,144.55Z" transform="translate(-251.06 -50.55)"/><path class="cls-1" d="M333.66,146.58c1.5,0,3,.46,4.51.6a3.59,3.59,0,0,1,.86,1.55c.69,1.74,1.49,3.45,2.16,5.2-.86,2.1-1.68,4.21-2.44,6.35a19.93,19.93,0,0,1-3.94.27,13.34,13.34,0,0,1-3,.16c0-1.18-.79-2.18-.9-3.35-.65-1.5-.95-3.1-1.51-4.63a32.82,32.82,0,0,1,2.38-3.59A14.22,14.22,0,0,1,333.66,146.58Zm.58,1.37c-1.27,1.57-2.29,3.32-3.42,5,.82,2.07,1.36,4.24,2,6.36a30,30,0,0,0,4.92-.23c.57-1.5,1.22-3,1.74-4.48.09-.31.41-.61.19-.93-.76-1.77-1.43-3.59-2.29-5.31C336.33,148.32,335.3,147.94,334.24,148Z" transform="translate(-251.06 -50.55)"/><path class="cls-1" d="M348.25,149.35c1,0,1.95.31,2.93.42a37.28,37.28,0,0,1,2,4.18,53.66,53.66,0,0,1-.61,6.57h-3.34c-.69-1.51-.81-3.27-1.35-4.85C347,153.61,348,151.45,348.25,149.35Zm.78.84a18,18,0,0,0-.79,3.93c.54,1.93,1.08,3.86,1.58,5.8h1.93a28.82,28.82,0,0,0,.57-4c.46-2-.86-3.58-1.57-5.27A4.09,4.09,0,0,0,349,150.19Z" transform="translate(-251.06 -50.55)"/><path class="cls-1" d="M313.46,158.58c2.11-2,3.87-4.41,6-6.45,2.28.21,4.53.69,6.8,1,.45.29,1.39-.06,1.7.51.87,2.51,1.78,5,2.66,7.52-1.05,2.3-2.42,4.44-3.43,6.76-2.79.27-5.57-.24-8.36-.15-.88-.22-1.47-1.09-2.24-1.55a1.7,1.7,0,0,1-.68-.7C315.18,163.15,314.08,160.93,313.46,158.58Zm6.61-4.81c-1.39,1.28-2.52,2.81-3.89,4.11-.46.25-.42.91-.9,1.13.34,1.6,1.15,3.09,1.62,4.67a10.06,10.06,0,0,0,1,2.4,57.94,57.94,0,0,0,8.34.23c.88-1.66,1.68-3.37,2.54-5,.17-.31,0-.66-.09-1-.59-1.67-1.2-3.33-1.78-5-.22-.9-1.45-.77-2.12-.9C323.19,154.27,321.64,153.76,320.07,153.77Z" transform="translate(-251.06 -50.55)"/><path class="cls-1" d="M342.24,155.15c1.38,0,2.76-.05,4.13,0,.78,1.48,1.28,3.11,2,4.65.13,2-1,3.78-1.35,5.7-1.24.1-2.48.41-3.72.39-1-1.7-2.19-3.29-3.22-5A60.68,60.68,0,0,1,342.24,155.15Zm.62,1c-.53,1.52-1.11,3-1.65,4.56A32,32,0,0,0,344,164.9a18.64,18.64,0,0,0,2.13-.41c.42-1.45.88-2.88,1.21-4.35-.48-1.13-1-2.25-1.4-3.39-.19-.45-.25-1.26-1.18-.62Z" transform="translate(-251.06 -50.55)"/><path class="cls-1" d="M353.44,159.75c1.88-.07,2.68,2.61,1.53,3.93-1.58.32-1.61-1.43-2.14-2.38A5.69,5.69,0,0,1,353.44,159.75Zm.38.59c-.22.36-.6.82-.29,1.25s.3,1.39,1,1.52A1.76,1.76,0,0,0,353.82,160.34Z" transform="translate(-251.06 -50.55)"/><path class="cls-1" d="M349.22,161.13a23.91,23.91,0,0,1,2.54,0c.37,1.21.95,2.35,1.24,3.57a16.06,16.06,0,0,1-1.05,2.75c-.83.4-1.67.82-2.51,1.21-.44-1-1-2-1.43-3C348.23,164.16,348.85,162.66,349.22,161.13Zm.62.81c-.41,1.24-.71,2.51-1,3.77a9.17,9.17,0,0,1,.85,1.79,2.6,2.6,0,0,0,1.69-.63,13.54,13.54,0,0,0,.84-2.33c-.34-.87-.62-1.75-1-2.59Z" transform="translate(-251.06 -50.55)"/><path class="cls-1" d="M337.48,162c.65.15,1.9-.62,2.13.51.82,1.47,2,2.71,2.79,4.2-.39,1.67-1,3.3-1.45,5-1.74.89-3.54,1.71-5.3,2.58-2.15-1.65-4.34-3.25-6.41-5,.64-2.38,2.06-4.57,3.12-6.8A49.69,49.69,0,0,1,337.48,162Zm-1.8,1.42c-.8.13-1.62.05-2.42.11a12.64,12.64,0,0,0-1.12,2.31c-.39,1-1.22,1.93-1.3,3,1.61,1.31,3.26,2.64,5,3.82a32.37,32.37,0,0,0,4.15-2c.21-1.28.78-2.48,1-3.75-.77-1.22-1.58-2.43-2.4-3.61Z" transform="translate(-251.06 -50.55)"/><path class="cls-1" d="M355.23,164.21c.52.28.87,1.24,1.31,1.77.1.94-.25,1.93-.18,2.9a5.46,5.46,0,0,1-1.92,1c-.4-.58-.83-1.16-1.2-1.77.3-1,.14-2.18.6-3.16A9.32,9.32,0,0,1,355.23,164.21Zm-.38.77a1.72,1.72,0,0,0-.61.39c-.13.85-.32,1.69-.43,2.54a8.45,8.45,0,0,0,.82,1.39,7.67,7.67,0,0,0,1.11-.65c.26-1.27.58-2.77-.56-3.74Z" transform="translate(-251.06 -50.55)"/><path class="cls-1" d="M346.08,166.83l.9-.1c.53,1.15,1.34,2.19,1.78,3.39-.27,1-.13,2-.61,2.95-1.25.5-2.45,1.21-3.72,1.64a37.32,37.32,0,0,1-2.23-3.2,16.59,16.59,0,0,1,1.25-4.35C344.33,167.09,345.2,167,346.08,166.83Zm.19,1c-.73.2-1.48.22-2.22.36-.17,1.05-.52,2.06-.76,3.1.5.65.86,1.39,1.35,2,1,0,1.83-.7,2.73-1,.05-1,.52-2.08-.16-3C346.87,168.88,346.75,167.94,346.27,167.8Z" transform="translate(-251.06 -50.55)"/><path class="cls-1" d="M351.65,168.78c.56.19,1,1.14,1.4,1.69.76,1,.07,2.21-.31,3.19a7.23,7.23,0,0,1-2.14,1.24c-.59-.27-.92-1-1.55-1.27a13.29,13.29,0,0,1,.4-3.26A11.52,11.52,0,0,1,351.65,168.78Zm-.08,1-1.31.82a8.9,8.9,0,0,0-.39,2.48c.38.37.66,1.29,1.33.67.9-.17,1.07-1,1.29-1.74C352.89,171.13,352,170.43,351.57,169.75Z" transform="translate(-251.06 -50.55)"/><path class="cls-1" d="M355.05,171c.6-.1.79.95,1.3,1.21a9.5,9.5,0,0,1-.18,2.71c-.66.31-1.21,1.08-1.93,1.2-.26-.65-1-1.2-.81-2C353.69,172.93,353.68,171.46,355.05,171Zm-.22.77a3,3,0,0,0-.4,3.56C356.08,175.13,356.56,172.15,354.83,171.74Z" transform="translate(-251.06 -50.55)"/><path class="cls-1" d="M341.21,172.33h.36c.83,1.24,1.68,2.49,2.4,3.78-.27,1.39-.44,2.8-.81,4.16-1.27,1.08-2.69,2-4,3l-.33.07c-1.51-.86-2.93-1.89-4.39-2.84a53,53,0,0,1,1.44-5.32C337.65,174.23,339.4,173.22,341.21,172.33Zm-.34,1.66c-1.15.58-2.31,1.13-3.45,1.73-.44.06-.44.5-.59.81-.37,1.1-.67,2.23-1,3.35.83.57,1.69,1.1,2.55,1.63.22.12.49.31.74.13.92-.68,1.85-1.34,2.79-2a22.45,22.45,0,0,0,.67-3.32c-.5-.79-1-1.56-1.47-2.37Z" transform="translate(-251.06 -50.55)"/><path class="cls-1" d="M347.82,174.33c.89.22,1.42,1.26,2.14,1.83.13,1-.42,1.87-.46,2.82.24,1.44-1.16,2-2,2.81-.43.32-.83.92-1.42.9-.6-.88-1.22-1.75-1.84-2.59a21.66,21.66,0,0,1,.85-3.93A27,27,0,0,1,347.82,174.33Zm-.14,1.06c-.64.51-1.42.82-2,1.37-.18,1-.41,2-.62,3,.18.7.82,1.19,1.19,1.8,1-.14,1.5-1.2,2.33-1.64.11-1.11.47-2.2.6-3.3C348.69,176.17,348.26,175.35,347.68,175.39Z" transform="translate(-251.06 -50.55)"/><path class="cls-1" d="M350.87,176.39c.64-.33,1.2-.95,1.91-1.07.55.4.85,1.16,1.36,1.66a6.37,6.37,0,0,1-.4,2.89c-.89.41-1.38,1.61-2.3,1.83-.46-.5-.92-1-1.42-1.43A19.45,19.45,0,0,1,350.87,176.39Zm1.57,0a8.1,8.1,0,0,0-1,.59c-.21.93-.39,1.86-.6,2.79-.15.41.37.62.57.9a2.77,2.77,0,0,0,1.88-2.42A1.55,1.55,0,0,0,352.44,176.39Z" transform="translate(-251.06 -50.55)"/><path class="cls-1" d="M353.45,180.55c.52-.16,1,.28,1.32.61a6,6,0,0,1-1.81,4.72,3.85,3.85,0,0,1-1.54-.42,14.35,14.35,0,0,1,.21-2.93A11.72,11.72,0,0,1,353.45,180.55Zm.2.61c-.41.38-.8.79-1.21,1.19a4.27,4.27,0,0,0-.42,2.71.63.63,0,0,0,.74.22c.47-.83,1.35-1.46,1.35-2.5C354.23,182.21,354.5,181,353.65,181.16Z" transform="translate(-251.06 -50.55)"/><path class="cls-1" d="M343.86,181.37l.12-.07c.45.76.86,1.55,1.35,2.28.27,1.18-.34,2.29-.38,3.46a9.81,9.81,0,0,0-2.38,2.43h-.31c-.5-.83-1.12-1.57-1.59-2.41.09-1.24.41-2.47.58-3.71C342.12,182.68,342.94,182,343.86,181.37Zm-.27,1.55c-.57.41-1.45.74-1.44,1.57a4.44,4.44,0,0,0,.11,3.4c.58.07.76-.74,1.15-1C344.37,185.88,344.88,183.83,343.59,182.92Z" transform="translate(-251.06 -50.55)"/><path class="cls-1" d="M349.45,181.56a7.72,7.72,0,0,1,1.34,1c-.05,1.06-.23,2.1-.21,3.16-.4.75-1.18,1.2-1.7,1.87-.09.67-.79.91-1.24,1.31-.52-.55-1.06-1.08-1.59-1.62a7.34,7.34,0,0,1,.59-3.11C347.5,183.2,348.52,182.43,349.45,181.56Zm-.19,1.19a12.74,12.74,0,0,0-1.53,1.67c-.88,0-.57,1.29-.85,1.81s.39,1.05.75,1.45a10.41,10.41,0,0,0,2.11-2.23c.11-.77.18-1.55.26-2.33C350,182.74,349.55,182.61,349.26,182.75Z" transform="translate(-251.06 -50.55)"/><path class="cls-1" d="M345.06,187.75c.94.16,1.33,1.45,2.09,2,.07,1,.08,2.08.05,3.13-.46.61-1,1.17-1.43,1.78-1-.1-1.95-.28-2.92-.41-.64-.48-.12-1.54-.46-2.16,0-.59-.5-1.3.06-1.76C343.33,189.49,344.18,188.61,345.06,187.75Zm0,1q-1,1-2,2a10.21,10.21,0,0,0,.42,2.7,10.23,10.23,0,0,0,1.92.4A3.22,3.22,0,0,0,345.05,188.74Z" transform="translate(-251.06 -50.55)"/><path class="cls-1" d="M348.21,189.71c.45-.57,1-1.42,1.77-1.61,1,1.32.86,3,.81,4.59-.32.58-.81,1.21-1.55,1.18-.31-.41-.87-.68-1-1.18C348.2,191.69,348.19,190.7,348.21,189.71Zm1.43-.74c-.43.43-1.12.83-1,1.53,0,.94-.34,2.39.81,2.79,1.42-.55,1-2.34.92-3.52C350.09,189.55,350,188.92,349.64,189Z" transform="translate(-251.06 -50.55)"/><path class="cls-1" d="M352.45,188.35a1.46,1.46,0,0,1,1.34.39c0,.64,0,1.31,0,2-.4.61-1.07,1.54-2,1.2-.94-.15-.13-1.66-.42-2.2C351.44,189.09,352.08,188.77,352.45,188.35Zm-.64,1.57c0,.52-.42,1.59.41,1.42l0,.18c.52-.09,1.25-.42,1.21-1s.25-1.22-.24-1.55C352.5,188.72,352.1,189.46,351.81,189.92Z" transform="translate(-251.06 -50.55)"/><path class="cls-1" d="M351.06,193.35c.58-.08,1.66.31,1.28,1.09.13,1.05-.78,1.57-1.4,2.22-.74.38-1.9-.14-1.34-1.16C349.26,194.45,350.3,193.8,351.06,193.35Zm-.27,2.68a.79.79,0,0,0,.73-.76c.37-.41.49-1.49-.31-1.37S349.42,196.49,350.79,196Z" transform="translate(-251.06 -50.55)"/><path class="cls-1" d="M347.26,194.14c.56-.18,1,.4,1.54.57v2.17c-.3.5-.79.85-1.08,1.36a8,8,0,0,1-1.9-.39c0-.54,0-1.61,0-2.14A9,9,0,0,1,347.26,194.14Zm.14.56a1.56,1.56,0,0,0-1,1.79c-.63,1.1.43,1,1,1.2C348.49,197.19,349.09,194.71,347.4,194.7Z" transform="translate(-251.06 -50.55)"/><path class="cls-1" d="M342.44,194.91c.93.1,1.83.31,2.75.42a24.7,24.7,0,0,1,0,3.1,2.43,2.43,0,0,1-2.94,1.47c-.41.07-.2-.65,0-.78a1.63,1.63,0,0,0,2.18-1.83c.62-1.41-.68-1.47-1.6-1.53a17.42,17.42,0,0,0-1,1.52c-.43.53-.65-.37-.54-.71C341.69,196,342,195.45,342.44,194.91Z" transform="translate(-251.06 -50.55)"/><path class="cls-1" d="M350.06,197.36c.65-.24.83.08.54.94.41.95-.58,1.26-.89,1.94-.53-.19-2.33.7-1.52-1A1.87,1.87,0,0,1,350.06,197.36Zm-.4.6c-.5.12-.71.61-1,1,0,.42.06,1.17.68.91.33-.66,1.17-1.09.84-2Z" transform="translate(-251.06 -50.55)"/><path class="cls-1" d="M345.66,198.92c.67-.12,2.22-.14,1.86,1.1.06.39.24.92-.26,1.14a2.58,2.58,0,0,1-2.41,1.12,6,6,0,0,1-.24-2C344.94,199.83,345.3,199.38,345.66,198.92Zm.35.4a2.54,2.54,0,0,0-.81,2.37c.82.22,1.26-.57,1.77-1C347.56,199.64,346.58,199.51,346,199.32Z" transform="translate(-251.06 -50.55)"/><path class="cls-1" d="M342.43,200.49a6.29,6.29,0,0,1,1.72.26,5.11,5.11,0,0,1,.23,2.09c-.49.46-1,.85-1.55,1.28a4,4,0,0,1,0-1c.42-.44,1.14-.81.75-1.6-.28-.36-.77-.21-1.16-.27C342.35,201,342.12,200.7,342.43,200.49Z" transform="translate(-251.06 -50.55)"/><path class="cls-1" d="M347.68,201.36c.57-.19,1.83-.8,1.13.74a2.29,2.29,0,0,1-2.4,1.79v-1.35A3.25,3.25,0,0,0,347.68,201.36Zm.38.39c-.56.36-1.42.76-1.26,1.55.74-.16,1.72-.76,1.61-1.62Z" transform="translate(-251.06 -50.55)"/><path class="cls-1" d="M342.81,204.52c.87-.57,1.69-1.7,2.83-1.45,0,.36,0,1.08,0,1.44-.74.66-1.52,1.56-2.62,1.39A4.69,4.69,0,0,1,342.81,204.52Zm1.85-.77c-.44.49-1.49.71-1.25,1.55.72,0,1.25-.63,1.77-1.05C345.34,203.8,345.13,203.51,344.66,203.75Z" transform="translate(-251.06 -50.55)"/></svg>